HIERARCHY
ROOT root
{
	OFFSET	0	13.1	24.9
	CHANNELS 6  Xposition Yposition Zposition Xrotation Yrotation Zrotation
	JOINT spine_1
	{
		OFFSET	0	9.99999	0
		CHANNELS 3  Xrotation Yrotation Zrotation
		JOINT spine_2
		{
			OFFSET	0	112	-10
			CHANNELS 3  Xrotation Yrotation Zrotation
			JOINT spine_3
			{
				OFFSET	0	206.5	19.3
				CHANNELS 3  Xrotation Yrotation Zrotation
				JOINT spine_4
				{
					OFFSET	0	110.4	14.6
					CHANNELS 3  Xrotation Yrotation Zrotation
					JOINT neck_1
					{
						OFFSET	0	71.8	-50.3
						CHANNELS 3  Xrotation Yrotation Zrotation
						JOINT neck_2
						{
							OFFSET	0	86.2	-25.8
							CHANNELS 3  Xrotation Yrotation Zrotation
							JOINT head_ee
							{
								OFFSET	0	179.8	-8.7
								CHANNELS 3  Xrotation Yrotation Zrotation
								End Site
								{
									OFFSET	1	0	0
								}
							}
						}
					}
					JOINT left_clavicle
					{
						OFFSET	-43.2	22.4	-70.8
						CHANNELS 3  Xrotation Yrotation Zrotation
						JOINT left_shoulder
						{
							OFFSET	-93.9	-5.79999	48.7
							CHANNELS 3  Xrotation Yrotation Zrotation
							JOINT left_elbow
							{
								OFFSET	-291.4	-30.8	15.2
								CHANNELS 3  Xrotation Yrotation Zrotation
								JOINT left_lowarm_twist
								{
									OFFSET	-110.7	-3.89999	13.6
									CHANNELS 3  Xrotation Yrotation Zrotation
									JOINT left_hand
									{
										OFFSET	-110.7	-3.89999	13.6
										CHANNELS 3  Xrotation Yrotation Zrotation
										JOINT left_ee
										{
											OFFSET	-80.8	-5.10001	12.1
											CHANNELS 3  Xrotation Yrotation Zrotation
											End Site
											{
												OFFSET	1	0	0
											}
										}
									}
								}
							}
						}
					}
					JOINT right_clavicle
					{
						OFFSET	43.2	22.4	-70.8
						CHANNELS 3  Xrotation Yrotation Zrotation
						JOINT right_shoulder
						{
							OFFSET	93.9	-5.79999	48.7
							CHANNELS 3  Xrotation Yrotation Zrotation
							JOINT right_elbow
							{
								OFFSET	291.4	-30.8	15.2
								CHANNELS 3  Xrotation Yrotation Zrotation
								JOINT right_lowarm_twist
								{
									OFFSET	110.7	-3.89999	13.6
									CHANNELS 3  Xrotation Yrotation Zrotation
									JOINT right_hand
									{
										OFFSET	110.7	-3.89999	13.6
										CHANNELS 3  Xrotation Yrotation Zrotation
										JOINT right_ee
										{
											OFFSET	80.8	-5.10001	12.1
											CHANNELS 3  Xrotation Yrotation Zrotation
											End Site
											{
												OFFSET	1	0	0
											}
										}
									}
								}
							}
						}
					}
				}
			}
		}
	}
	JOINT left_hip
	{
		OFFSET	-82.8	-127.5	0.300001
		CHANNELS 3  Xrotation Yrotation Zrotation
		JOINT left_knee
		{
			OFFSET	-28.2	-396.7	2.2
			CHANNELS 3  Xrotation Yrotation Zrotation
			JOINT left_ankle
			{
				OFFSET	-11.7	-411.3	35.4
				CHANNELS 3  Xrotation Yrotation Zrotation
				JOINT left_toes
				{
					OFFSET	0	-60	-88.6
					CHANNELS 3  Xrotation Yrotation Zrotation
					JOINT left_foot_ee
					{
						OFFSET	-22.5	-16.5	-42.2
						CHANNELS 3  Xrotation Yrotation Zrotation
						End Site
						{
							OFFSET	1	0	0
						}
					}
				}
			}
		}
	}
	JOINT right_hip
	{
		OFFSET	82.8	-127.5	0.300001
		CHANNELS 3  Xrotation Yrotation Zrotation
		JOINT right_knee
		{
			OFFSET	28.2	-396.7	2.2
			CHANNELS 3  Xrotation Yrotation Zrotation
			JOINT right_ankle
			{
				OFFSET	11.7	-411.3	35.4
				CHANNELS 3  Xrotation Yrotation Zrotation
				JOINT right_toes
				{
					OFFSET	0	-60	-88.6
					CHANNELS 3  Xrotation Yrotation Zrotation
					JOINT right_foot_ee
					{
						OFFSET	22.5	-16.5	-42.2
						CHANNELS 3  Xrotation Yrotation Zrotation
						End Site
						{
							OFFSET	1	0	0
						}
					}
				}
			}
		}
	}
}
MOTION
Frames: 5
Frame Time: 0.02
2793.16131024 726.96 -1585.19504503 34.3271338297 85.6989115735 -28.9390495099 0.996685 -0.547578 -2.61432 1.00041 -0.380172 -2.64384 1.01905 0.13653 -2.66752 1.00924 -0.286317 -2.65563 -18.5272 9.07166 3.53026 -18.8 15.5859 6.88931 -0.0 0.0 -0.0 11.0903 17.3867 19.7341 -7.42597 -22.8363 60.8915 1.65555 -39.3523 0.592031 -14.6532 -0.740177 1.71611 -1.38885 28.3919 3.55202 -0.0 0.0 -0.0 5.81112 1.25125 -11.2201 -18.0712 4.244 -67.283 0.521986 14.498 -0.066396 -72.2903 6.83857 -5.31693 -5.12025 -3.97078 34.2073 0.0 0.0 0.0 -0.995033 8.70656 -3.19317 4.05766 -0.188235 -0.59399 22.691 15.0268 -3.08973 -20.1278 0.0 0.0 -0.0 0.0 -0.0 10.7028 11.8361 -1.80371 -53.7534 1.56453 -7.80232 15.5056 -0.00443695 2.17728 22.2896 -0.0 -0.0 0.0 0.0 0.0 
2781.01634507 731.65 -1570.85857322 30.1941068077 86.4422533928 -25.8233004525 1.12033 -0.562827 -2.8145 1.12466 -0.382667 -2.84458 1.14475 0.166507 -2.86535 1.13341 -0.287922 -2.85571 -17.4764 8.85028 3.06655 -17.7197 15.3252 6.2137 -0.0 0.0 -0.0 11.227 13.988 20.5721 -4.00299 -24.0473 61.9011 1.66443 -39.5027 0.597671 -14.0015 -0.698053 1.64411 -1.57343 28.7968 2.73744 -0.0 0.0 -0.0 6.10988 -0.114838 -11.8356 -20.4024 4.35981 -65.4216 0.294113 8.28955 -0.0213133 -72.8371 6.90846 -5.31869 -5.31605 -4.58875 35.3889 0.0 0.0 0.0 -2.65674 7.85129 -3.11401 5.71231 -0.277015 -0.832211 21.1951 15.9735 -2.91316 -20.1235 0.0 0.0 -0.0 0.0 -0.0 17.3264 7.16487 -1.30776 -52.4648 1.44354 -7.64489 15.5295 -0.805395 2.17663 21.4864 -0.0 -0.0 0.0 0.0 0.0 
2763.68271922 732.431 -1564.40545431 55.3661461841 88.6055144208 -49.6068209076 1.27017 -0.676612 -2.83014 1.27449 -0.495228 -2.86742 1.3003 0.0523175 -2.90936 1.28872 -0.407625 -2.88117 -17.487 8.9534 3.2732 -17.7297 15.411 6.44678 -0.0 0.0 -0.0 11.4898 14.6303 20.9385 -2.36103 -24.6642 62.7031 1.78677 -41.5087 0.677148 -14.6081 -0.737234 1.71114 -1.88792 28.8154 1.05744 -0.0 0.0 -0.0 6.00291 -1.1633 -11.6402 -22.3351 4.12565 -65.1363 0.197845 5.59763 -0.00967217 -73.8506 7.038 -5.32018 -5.36324 -4.96973 35.5174 0.0 0.0 0.0 -3.60223 9.73986 -2.88282 6.37911 -0.314736 -0.927485 20.9035 18.2411 -2.89704 -19.282 0.0 0.0 -0.0 0.0 -0.0 20.985 6.16897 -1.75097 -48.8938 1.1272 -7.19509 11.6123 -1.29035 1.65174 22.9716 -0.0 -0.0 0.0 0.0 0.0 
2750.29529864 732.074 -1558.11596176 16.777780263 88.5941890548 -11.4635904136 1.49859 -0.618045 -2.99185 1.50347 -0.426503 -3.02507 1.52671 0.137484 -3.05187 1.51388 -0.346 -3.03532 -18.0442 8.94484 3.734 -18.2835 15.1915 6.95186 -0.0 0.0 -0.0 11.2936 13.3789 20.7942 -0.0367571 -24.7272 62.9426 1.81801 -42.0018 0.697951 -14.6066 -0.737137 1.71098 -2.08817 28.5591 -0.142096 -0.0 0.0 -0.0 6.09395 -1.73849 -11.8228 -23.8669 3.95095 -64.0896 0.187486 5.30626 -0.00868785 -74.089 7.06847 -5.32019 -5.41883 -5.89449 35.3371 0.0 0.0 0.0 -4.05364 10.0662 -2.34215 6.94375 -0.347546 -1.00782 18.5863 20.5522 -2.62419 -19.0102 0.0 0.0 -0.0 0.0 -0.0 23.7524 4.77724 -1.7649 -46.2841 0.91416 -6.85456 8.80961 -1.86162 1.26442 23.9196 -0.0 -0.0 0.0 0.0 0.0 
2737.54636498 725.763 -1557.07481937 2.09285842036 86.779843744 2.86451614911 1.64934 -0.457832 -3.05736 1.6545 -0.262452 -3.08026 1.66898 0.301489 -3.07669 1.65582 -0.187962 -3.0857 -18.6406 8.73287 6.28097 -18.7542 13.4868 9.29595 -0.0 0.0 -0.0 10.7605 12.4155 19.9624 3.2194 -24.6179 62.8512 1.86466 -42.7243 0.729388 -13.3029 -0.653819 1.56641 -2.04235 26.4379 -0.926883 -0.0 0.0 -0.0 6.02033 -2.7705 -11.6884 -25.0683 3.74523 -63.0916 0.246345 6.95768 -0.0149758 -74.1901 7.08139 -5.32016 -5.85569 -8.47177 37.0621 0.0 0.0 0.0 -4.04245 8.41271 -2.34197 4.36067 -0.203976 -0.637801 21.9758 21.8937 -3.07633 -18.1276 0.0 0.0 -0.0 0.0 -0.0 25.6586 3.14303 -1.53825 -41.8503 0.588658 -6.25534 5.27215 -0.462904 0.767729 23.8602 -0.0 -0.0 0.0 0.0 0.0 
